M48
;Layer_Color=9474304
;FILE_FORMAT=4:4
METRIC,LZ
;TYPE=PLATED
T01F00S00C0.7112
T02F00S00C0.8000
T03F00S00C0.9140
T04F00S00C1.0000
T05F00S00C1.1000
%
T01
X0043688Y0125476
X0046355
T02
X0058801Y0083393
Y0094153
T03
X0033909Y0083693
Y0086233
Y0088773
Y0091313
Y0093853
Y0096393
Y0098933
Y0101473
Y0104013
Y0106553
Y0109093
Y0111633
Y0114173
Y0116713
X0049149
Y0114173
Y0111633
Y0109093
Y0106553
Y0104013
Y0101473
Y0098933
Y0096393
Y0093853
Y0091313
Y0088773
Y0086233
Y0083693
Y0119253
X0033909
T04
X0059436Y0104394
Y0106934
Y0109474
T05
X0029845Y00821101
Y00846501
Y00871901
Y00965242
Y00990642
Y01016042
Y01101409
Y01126809
Y01152209
Y01177609
X00527817Y0116538
X00562748
X00537413Y011176
Y010922
Y010668
Y010414
Y01016
Y009906
Y009652
Y009398
Y009144
Y00889
Y008636
Y008382
X00527817Y0119078
Y0121618
X00562748
Y0119078
M30
